<?xml version="1.0" encoding="utf-8"?>
<!-- Generator: Adobe Illustrator 21.0.0, SVG Export Plug-In . SVG Version: 6.00 Build 0)  -->
<svg version="1.1" id="Ebene_1" xmlns="http://www.w3.org/2000/svg" xmlns:xlink="http://www.w3.org/1999/xlink" x="0px" y="0px"
	 viewBox="0 0 346.7 71" style="enable-background:new 0 0 346.7 71;" xml:space="preserve" width="346.7" height="71">
<style type="text/css">
	.st0{fill:#FFED00;}
	.st1{fill:#FFFFFF;}
</style>
<path class="st0" d="M34.2,8.6H14.8c-0.5,0-0.8,0.4-0.9,1.3l-1.2,9h15.5l-0.9,6.5H11.9L9.7,41.9H2.4l4.2-32c0.7-5.2,3.7-7.8,9-7.8
	l19.3,0.4L34.2,8.6z"/>
<polygon class="st0" points="46.3,2.2 41.1,41.9 33.8,41.9 39,2.2 "/>
<polygon class="st0" points="80.4,2.1 79.5,8.5 68.6,8.5 64.3,41.9 56.9,41.9 61.2,8.5 49.5,8.5 50.3,2.1 "/>
<path class="st1" d="M218.9,2.1L215,31.4c-0.4,2.6-0.5,4-0.4,4h17.7l-0.9,6.4h-17.7c-5.1,0-7.2-3.5-6.3-10.4l3.8-29.3H218.9z"/>
<path class="st1" d="M264.7,41.9l-2-9h-15.4l-4.4,9h-7.3l16.9-36.6c1-2.1,2.4-3.1,4.3-3.1h4.6c1.9,0,3,1,3.4,3.1l7.3,36.6H264.7z
	 M261.4,26.5l-3.1-16h-0.7l-7.5,16H261.4z"/>
<path class="st1" d="M276,41.8l4.9-37.5c0.2-1.5,1.2-2.2,3-2.2h7.3c1.5,0,2.4,0.7,2.8,2l6.1,31.3h0.7l4.3-33.2h7.3l-5,37.5
	c-0.2,1.4-1.2,2.1-2.9,2.1h-7.2c-1.5,0-2.5-0.8-2.9-2.3L288.2,10h-0.8l-4.2,31.8H276z"/>
<path class="st1" d="M311.2,42l5.2-40h15.6c9.5,0,13.4,6.7,11.7,20C342,35.3,336.4,42,326.9,42H311.2z M327.7,35.6
	c4.5,0,7.3-4.5,8.5-13.6c1.2-9-0.5-13.5-5-13.5H323l-3.5,27.1H327.7z"/>
<path class="st0" d="M79.2,41.8l4.9-37.5c0.2-1.5,1.2-2.2,3-2.2h7.3c1.5,0,2.4,0.7,2.8,2l6.1,31.3h0.7l4.3-33.2h7.3l-5,37.5
	c-0.2,1.4-1.2,2.1-2.9,2.1h-7.2c-1.5,0-2.5-0.8-2.9-2.3L91.4,10h-0.8l-4.2,31.8H79.2z"/>
<path class="st0" d="M146.1,8.5h-19.3c-0.5,0-0.8,0.4-0.9,1.3l-1.2,9.1h15.5l-0.8,6h-15.5l-1.2,9.2c-0.1,0.9,0.1,1.3,0.6,1.3h19.2
	l-0.8,5.9l-19.3,0.4c-5.4,0-7.8-2.5-7.1-7.6l3.2-24.3c0.7-5.2,3.7-7.8,9.1-7.8l19.3,0.4L146.1,8.5z"/>
<path class="st0" d="M176.4,2.8l-0.7,5.9l-11.8-0.1c-4.2,0-6.4,0.8-6.6,2.4l-0.5,3.9c0,1.4,1.3,2.4,4.1,3.2l4.7,1.5
	c6.4,1.7,9.3,5,8.7,9.8l-0.4,3.2c-0.8,6.3-5.4,9.5-13.9,9.5l-13.5-0.5l0.8-6l13.2,0.2c3.7,0,5.6-1,6-3.1l0.4-3.2
	c0.2-1.5-1.2-2.6-4.2-3.5l-5.5-1.9c-5.5-1.7-8.1-4.8-7.8-9l0.5-4c0.8-5.8,5.7-8.8,14.8-8.8L176.4,2.8z"/>
<path class="st0" d="M205.9,2.8l-0.7,5.9l-11.8-0.1c-4.2,0-6.4,0.8-6.6,2.4l-0.5,3.9c0,1.4,1.3,2.4,4.1,3.2l4.7,1.5
	c6.4,1.7,9.3,5,8.7,9.8l-0.4,3.2c-0.8,6.3-5.4,9.5-13.9,9.5l-13.5-0.5l0.8-6l13.2,0.2c3.7,0,5.6-1,6-3.1l0.4-3.2
	c0.2-1.5-1.2-2.6-4.2-3.5l-5.5-1.9c-5.5-1.7-8.1-4.8-7.8-9l0.5-4c0.8-5.8,5.7-8.8,14.8-8.8L205.9,2.8z"/>
<path class="st1" d="M264.1,57.3c-2.4,0-3.5,0.8-3.5,2.3l0,1.2c0.1,1.2,0.9,2,2.4,2.4l2.8,0.5c0.9,0.1,1.3,0.5,1.4,0.9v1
	c0,0.5-0.6,0.8-1.7,0.8l-4.6,0V68l4.7,0.1c2.2,0,3.3-0.8,3.3-2.4v-1c0-1.4-0.9-2.2-2.7-2.5l-2.5-0.5c-0.8-0.1-1.3-0.4-1.3-0.9v-1.1
	c0-0.4,0.6-0.7,1.9-0.7l4.3,0v-1.5L264.1,57.3z M250.2,57.3c-2.4,0-3.5,0.8-3.5,2.3l0,1.2c0.1,1.2,0.9,2,2.4,2.4l2.8,0.5
	c0.9,0.1,1.3,0.5,1.4,0.9v1c0,0.5-0.6,0.8-1.7,0.8l-4.6,0V68l4.7,0.1c2.2,0,3.3-0.8,3.3-2.4v-1c0-1.4-0.9-2.2-2.7-2.5l-2.5-0.5
	c-0.8-0.1-1.3-0.4-1.3-0.9v-1.1c0-0.4,0.6-0.7,1.9-0.7l4.3,0v-1.5L250.2,57.3z M238.5,62.2H234c0.2-2.1,0.8-3.2,2-3.2h1.4
	c1.3,0,1.9,0.8,1.9,2.4C239.3,61.9,239,62.2,238.5,62.2 M239.5,63.7c1,0,1.5-0.7,1.6-2.2c-0.1-2.8-1.2-4.2-3.4-4.2h-1.7
	c-2.3,0-3.5,1.8-3.5,5.4c0,3.6,1.5,5.4,4.6,5.4c1.4,0,2.6-0.1,3.6-0.3l-0.2-1.4c-1.5,0.1-2.6,0.2-3.3,0.2c-1.8,0-2.9-1-3-2.9H239.5z
	 M219.7,60.1c0.8-0.8,1.5-1.2,2.1-1.2h1.4c1.1,0,1.7,1.1,1.7,3.2v6h1.7v-6c0-3.2-1.1-4.8-3.4-4.8h-1.4c-0.6,0-1.3,0.4-2.1,1.2
	l-0.2-1.2h-1.6v10.8h1.7V60.1z M207.1,54.8v2.6h-1.6v1.5h1.6v6.3c0,2,0.8,3,2.4,3l2.4-0.2v-1.4l-2.1,0.1c-0.6,0-0.9-0.4-1-1.3v-6.5
	h3v-1.5h-3v-2.6H207.1z M197.9,54.6h1.7v-1.8h-1.7V54.6z M197.9,68.1h1.7V57.3h-1.7V68.1z M188.8,68.1v-9.3h3v-1.5h-3v-1.2
	c0-1.1,0.7-1.7,2-1.7l1.7,0.1v-1.4l-1.8-0.2c-2.4,0-3.7,1.1-3.7,3.2v1.3h-1.4v1.5h1.4v9.3H188.8z M169,62.2h-4.4
	c0.2-2.1,0.8-3.2,2-3.2h1.4c1.3,0,1.9,0.8,1.9,2.4C169.8,61.9,169.5,62.2,169,62.2 M169.9,63.7c1,0,1.5-0.7,1.6-2.2
	c-0.1-2.8-1.2-4.2-3.4-4.2h-1.7c-2.3,0-3.5,1.8-3.5,5.4c0,3.6,1.5,5.4,4.6,5.4c1.4,0,2.6-0.1,3.6-0.3l-0.2-1.4
	c-1.5,0.1-2.6,0.2-3.3,0.2c-1.8,0-2.9-1-3-2.9H169.9z M148,52.8v15.3h1.7v-8.4c1.1-0.4,2.3-0.6,3.7-0.6c1.1,0,1.6,0.9,1.6,2.8v6.3
	h1.7v-7.6c0-2.1-1.2-3.1-3.5-3.2c-1.3,0-2.5,0.2-3.5,0.6v-5.1H148z M136.9,54.8v2.6h-1.6v1.5h1.6v6.3c0,2,0.8,3,2.4,3l2.4-0.2v-1.4
	l-2.1,0.1c-0.6,0-0.9-0.4-1-1.3v-6.5h3v-1.5h-3v-2.6H136.9z M118,52.8v12c0,2.2,0.9,3.3,2.8,3.3l1.6-0.2v-1.4l-1.6,0.1
	c-0.7,0-1.1-0.6-1.1-1.7v-12H118z M109,62.2h-4.4c0.2-2.1,0.8-3.2,2-3.2h1.4c1.3,0,1.9,0.8,1.9,2.4C109.9,61.9,109.6,62.2,109,62.2
	 M110,63.7c1,0,1.5-0.7,1.6-2.2c-0.1-2.8-1.2-4.2-3.4-4.2h-1.7c-2.3,0-3.5,1.8-3.5,5.4c0,3.6,1.5,5.4,4.6,5.4c1.4,0,2.6-0.1,3.6-0.3
	l-0.2-1.4c-1.5,0.1-2.6,0.2-3.3,0.2c-1.8,0-2.9-1-3-2.9H110z M94.7,62.2h-4.4c0.2-2.1,0.8-3.2,2-3.2h1.4c1.3,0,1.9,0.8,1.9,2.4
	C95.6,61.9,95.3,62.2,94.7,62.2 M95.7,63.7c1,0,1.5-0.7,1.6-2.2c-0.1-2.8-1.2-4.2-3.4-4.2h-1.7c-2.3,0-3.5,1.8-3.5,5.4
	c0,3.6,1.5,5.4,4.6,5.4c1.4,0,2.6-0.1,3.6-0.3l-0.2-1.4c-1.5,0.1-2.6,0.2-3.3,0.2c-1.8,0-2.9-1-3-2.9H95.7z M81,68.1v-9.3h3v-1.5h-3
	v-1.2c0-1.1,0.7-1.7,2-1.7l1.7,0.1v-1.4l-1.8-0.2c-2.4,0-3.7,1.1-3.7,3.2v1.3h-1.4v1.5h1.4v9.3H81z"/>
</svg>
